<?xml version="1.0" ?><!DOCTYPE svg  PUBLIC '-//W3C//DTD SVG 1.1//EN'  'http://www.w3.org/Graphics/SVG/1.1/DTD/svg11.dtd'><svg enable-background="new 0 0 128 128" id="Слой_1" version="1.1" viewBox="0 0 128 128" xml:space="preserve" xmlns="http://www.w3.org/2000/svg" xmlns:xlink="http://www.w3.org/1999/xlink"><g><g><path d="M88.8,37.7V99c0,5.5-4.5,10-10,10H39.4c-5.5,0-10-4.5-10-10V37.2h44.7" fill="#A05D53"/></g><g><polyline fill="#FFFFFF" points="88.8,37.7 88.8,49.1 29.4,49.1 29.4,37.2 74.1,37.2   "/></g><g opacity="0.2"><g><path d="M77,37.2H61.8l12.8,0.5v52.2c0,10.6-7.6,19.1-18.2,19.1h22.4c5.5,0,10-4.5,10-10V37.7L77,37.2z" fill="#62345B"/></g></g><g><path d="M78.8,111H39.4c-6.6,0-12-5.4-12-12V37.2c0-1.1,0.9-2,2-2h44.7c1.1,0,2,0.9,2,2s-0.9,2-2,2H31.4V99    c0,4.4,3.6,8,8,8h39.4c4.4,0,8-3.6,8-8V46.8c0-1.1,0.9-2,2-2s2,0.9,2,2V99C90.8,105.6,85.4,111,78.8,111z" fill="#62345B"/></g><g><g><path d="M43.7,81.4c-1.1,0-2-0.9-2-2V37.2c0-1.1,0.9-2,2-2s2,0.9,2,2v42.3C45.7,80.6,44.9,81.4,43.7,81.4z" fill="#62345B"/></g><g><path d="M59.1,81.4c-1.1,0-2-0.9-2-2V37.2c0-1.1,0.9-2,2-2s2,0.9,2,2v42.3C61.1,80.6,60.2,81.4,59.1,81.4z" fill="#62345B"/></g><g><path d="M74.4,81.4c-1.1,0-2-0.9-2-2V37.2c0-1.1,0.9-2,2-2s2,0.9,2,2v42.3C76.4,80.6,75.5,81.4,74.4,81.4z" fill="#62345B"/></g></g><g><path d="M84.5,19H29.2c-5,0-9.1,4.1-9.1,9.1v0c0,5,4.1,9.1,9.1,9.1h50.1c2.6,0,4.8,2.1,4.8,4.8v0    c0,2.6,2.1,4.8,4.8,4.8h0c2.6,0,4.8-2.1,4.8-4.8V28.1C93.6,23.1,89.5,19,84.5,19z" fill="#FFFFFF"/></g><g><path d="M88.8,48.8c-3.7,0-6.8-3-6.8-6.8c0-1.5-1.2-2.8-2.8-2.8H29.2c-6.1,0-11.1-5-11.1-11.1S23,17,29.2,17h55.3    c6.1,0,11.1,5,11.1,11.1V42C95.6,45.7,92.5,48.8,88.8,48.8z M29.2,21c-3.9,0-7.1,3.2-7.1,7.1s3.2,7.1,7.1,7.1h50.1    c3.7,0,6.8,3,6.8,6.8c0,1.5,1.2,2.8,2.8,2.8c1.5,0,2.8-1.2,2.8-2.8V28.1c0-3.9-3.2-7.1-7.1-7.1H29.2z" fill="#62345B"/></g><g><path d="M98.4,91.9h-9.6c-1.1,0-2-0.9-2-2s0.9-2,2-2h9.6c4.2,0,7.6-3.4,7.6-7.6v-24c0-4.2-3.4-7.6-7.6-7.6h-9.6    c-1.1,0-2-0.9-2-2s0.9-2,2-2h9.6c6.4,0,11.6,5.2,11.6,11.6v24C109.9,86.7,104.7,91.9,98.4,91.9z" fill="#62345B"/></g></g></svg>