<?xml version="1.0" ?><!DOCTYPE svg  PUBLIC '-//W3C//DTD SVG 1.1//EN'  'http://www.w3.org/Graphics/SVG/1.1/DTD/svg11.dtd'><svg enable-background="new 0 0 128 128" id="Слой_1" version="1.1" viewBox="0 0 128 128" xml:space="preserve" xmlns="http://www.w3.org/2000/svg" xmlns:xlink="http://www.w3.org/1999/xlink"><g><g><path d="M116.3,54c0,11-9,20-20,20l0.7-20.3L76.3,54c0-11,9-20,20-20S116.3,42.9,116.3,54z" fill="#E5DC35"/></g><g><path d="M96.3,76c-1.1,0-2-0.9-2-2s0.9-2,2-2c9.9,0,18-8.1,18-18s-8.1-18-18-18s-18,8.1-18,18c0,1.1-0.9,2-2,2    s-2-0.9-2-2c0-12.1,9.9-22,22-22s22,9.9,22,22S108.5,76,96.3,76z" fill="#62345B"/></g><g><g opacity="0.7"><path d="M91.6,47.4l-4.1-4.1c-0.9-0.9-0.7-2.5,0.4-3.2c1.4-0.8,3-1.5,4.6-1.9c1.3-0.3,2.5,0.6,2.5,1.9V46     C95,47.7,92.9,48.6,91.6,47.4z" fill="#FFFFFF"/></g><g opacity="0.7"><path d="M97.7,46l0-5.8c0-1.3,1.2-2.3,2.5-1.9c1.6,0.4,3.2,1.1,4.6,1.9c1.1,0.7,1.3,2.2,0.4,3.1l-4.1,4.1     C99.8,48.6,97.7,47.7,97.7,46z" fill="#FFFFFF"/></g><g opacity="0.7"><path d="M103,49.3l4.1-4.1c0.9-0.9,2.5-0.7,3.2,0.4c0.8,1.4,1.5,3,1.9,4.6c0.3,1.3-0.6,2.5-1.9,2.5h-5.8     C102.6,52.7,101.7,50.5,103,49.3z" fill="#FFFFFF"/></g><g opacity="0.7"><path d="M104.4,55.3l5.8,0c1.3,0,2.3,1.2,1.9,2.5c-0.4,1.6-1.1,3.2-1.9,4.6c-0.7,1.1-2.2,1.3-3.1,0.4l-4.1-4.1     C101.7,57.5,102.6,55.3,104.4,55.3z" fill="#FFFFFF"/></g><g opacity="0.7"><path d="M101.1,60.6l4.1,4.1c0.9,0.9,0.7,2.5-0.4,3.2c-1.4,0.8-3,1.5-4.6,1.9c-1.3,0.3-2.5-0.6-2.5-1.9V62     C97.7,60.2,99.8,59.3,101.1,60.6z" fill="#FFFFFF"/></g><g opacity="0.7"><path d="M88.3,52.7l-5.8,0c-1.3,0-2.3-1.2-1.9-2.5c0.4-1.6,1.1-3.2,1.9-4.6c0.7-1.1,2.2-1.3,3.1-0.4l4.1,4.1     C91,50.5,90.1,52.7,88.3,52.7z" fill="#FFFFFF"/></g></g></g><g><rect fill="#EAF3FB" height="70" width="60" x="36.3" y="54"/></g><g><path d="M86.3,104h-40c-5.5,0-10-4.5-10-10V54h60v40C96.3,99.5,91.9,104,86.3,104z" fill="#A05D53"/></g><g opacity="0.2"><g><rect fill="#62345B" height="70" width="11" x="85.3" y="54"/></g></g><g opacity="0.7"><path d="M46.3,81.7c-1.1,0-2-0.9-2-2v-26c0-1.1,0.9-2,2-2s2,0.9,2,2v26C48.3,80.8,47.4,81.7,46.3,81.7z" fill="#FFFFFF"/></g><g><path d="M96.3,126h-60c-1.1,0-2-0.9-2-2V54c0-1.1,0.9-2,2-2h60c1.1,0,2,0.9,2,2v70C98.3,125.1,97.5,126,96.3,126z    M38.3,122h56V56h-56V122z" fill="#62345B"/></g><g><path d="M56.3,56c-0.9,0-1.8-0.7-2-1.6L44.9,7l-17.7,8.8c-1,0.5-2.2,0.1-2.7-0.9c-0.5-1-0.1-2.2,0.9-2.7l20-10   c0.6-0.3,1.2-0.3,1.8,0c0.6,0.3,1,0.8,1.1,1.4l10,50c0.2,1.1-0.5,2.1-1.6,2.4C56.6,56,56.5,56,56.3,56z" fill="#62345B"/></g><g><path d="M62.4,56c-0.1,0-0.1,0-0.2,0c-1.1-0.1-1.9-1.1-1.8-2.2l4-50c0.1-1.1,1.1-1.9,2.2-1.8   c1.1,0.1,1.9,1.1,1.8,2.2l-4,50C64.3,55.2,63.4,56,62.4,56z" fill="#62345B"/></g><g><g opacity="0.7"><circle cx="82.4" cy="81" fill="#FFFFFF" r="3"/></g><g opacity="0.7"><circle cx="82.4" cy="91" fill="#FFFFFF" r="3"/></g><g opacity="0.7"><circle cx="72.4" cy="91" fill="#FFFFFF" r="3"/></g></g></svg>