<?xml version="1.0" encoding="utf-8"?>
<!-- Generator: Adobe Illustrator 16.0.0, SVG Export Plug-In . SVG Version: 6.00 Build 0)  -->
<!DOCTYPE svg PUBLIC "-//W3C//DTD SVG 1.1//EN" "http://www.w3.org/Graphics/SVG/1.1/DTD/svg11.dtd">
<svg version="1.1" id="Calque_1" xmlns="http://www.w3.org/2000/svg" xmlns:xlink="http://www.w3.org/1999/xlink" x="0px" y="0px"
	 width="375px" height="375px" viewBox="462.5 12.5 375 375" enable-background="new 462.5 12.5 375 375" xml:space="preserve">
<g id="Line">
	<g>
		<path fill="#FFFFFF" d="M825,25v350H475V25H825 M837.5,12.5h-375v375h375V12.5L837.5,12.5z"/>
		<path fill="#FFFFFF" d="M825,25v350H475V25H825 M837.5,12.5h-375v375h375V12.5L837.5,12.5z"/>
	</g>
	<path fill="#FFFFFF" d="M623.65,301.536h41.962v-101.55H693.6L697.313,165h-31.699l0.038-17.525
		c0-9.125,0.875-14.013,13.962-14.013h17.5v-35h-28c-33.625,0-45.462,16.976-45.462,45.524V165h-20.964v35h20.964L623.65,301.536
		L623.65,301.536z"/>
</g>
</svg>
